<?xml version="1.0" encoding="UTF-8" standalone="no"?>
<svg
   viewBox="0 0 348 348"
   fill="none"
   version="1.1"
   id="svg32"
   sodipodi:docname="Factory Cubes.svg"
   inkscape:version="1.2.1 (9c6d41e410, 2022-07-14)"
   xmlns:inkscape="http://www.inkscape.org/namespaces/inkscape"
   xmlns:sodipodi="http://sodipodi.sourceforge.net/DTD/sodipodi-0.dtd"
   xmlns="http://www.w3.org/2000/svg"
   xmlns:svg="http://www.w3.org/2000/svg">
  <defs
     id="defs36" />
  <sodipodi:namedview
     id="namedview34"
     pagecolor="#ffffff"
     bordercolor="#000000"
     borderopacity="0.25"
     inkscape:showpageshadow="2"
     inkscape:pageopacity="0.0"
     inkscape:pagecheckerboard="0"
     inkscape:deskcolor="#d1d1d1"
     showgrid="false"
     inkscape:zoom="2.9511494"
     inkscape:cx="173.83057"
     inkscape:cy="173.83057"
     inkscape:window-width="3360"
     inkscape:window-height="1780"
     inkscape:window-x="-12"
     inkscape:window-y="452"
     inkscape:window-maximized="1"
     inkscape:current-layer="svg32" />
  <path
     d="M5.079 5.776h336.913v337.67H5.08z"
     stroke-width="2"
     stroke="#000"
     id="path20" />
  <path
     d="M282.734 40.554c0-8.376 6.966-15.165 15.56-15.165 4.126 0 8.084 1.597 11.001 4.441 2.918 2.844 4.558 6.702 4.558 10.724 0 8.376-6.966 15.165-15.56 15.165-8.593 0-15.559-6.79-15.559-15.165z"
     stroke-width="2"
     stroke="#000"
     id="path22" />
  <path
     d="M15.017 44.84c0-15.82 12.766-28.642 28.516-28.642a28.443 28.443 0 0 1 20.16 8.388 28.71 28.71 0 0 1 8.354 20.254c0 15.82-12.766 28.641-28.516 28.641-15.748 0-28.514-12.824-28.514-28.641zM13.975 114.178c0-15.819 12.766-28.641 28.515-28.641a28.443 28.443 0 0 1 20.16 8.387 28.71 28.71 0 0 1 8.354 20.254c0 15.82-12.766 28.642-28.516 28.642-15.747 0-28.513-12.824-28.513-28.642zM12.932 179.346c0-15.82 12.766-28.641 28.516-28.641a28.443 28.443 0 0 1 20.16 8.387 28.71 28.71 0 0 1 8.353 20.254c0 15.82-12.766 28.642-28.515 28.642-15.748 0-28.514-12.824-28.514-28.642zM13.453 244.514c0-15.82 12.766-28.642 28.516-28.642a28.443 28.443 0 0 1 20.16 8.388 28.71 28.71 0 0 1 8.354 20.254c0 15.82-12.766 28.641-28.516 28.641-15.748 0-28.514-12.824-28.514-28.641zM13.453 310.724c0-15.82 12.766-28.641 28.516-28.641a28.443 28.443 0 0 1 20.16 8.387 28.71 28.71 0 0 1 8.354 20.254c0 15.82-12.766 28.642-28.516 28.642-15.748 0-28.514-12.824-28.514-28.642zM82.27 309.16c0-15.82 12.766-28.641 28.516-28.641a28.443 28.443 0 0 1 20.16 8.387 28.71 28.71 0 0 1 8.354 20.254c0 15.82-12.766 28.642-28.516 28.642-15.748 0-28.514-12.824-28.514-28.642zM150.045 309.16c0-15.82 12.766-28.641 28.515-28.641a28.443 28.443 0 0 1 20.161 8.387 28.71 28.71 0 0 1 8.353 20.254c0 15.82-12.766 28.642-28.515 28.642-15.748 0-28.514-12.824-28.514-28.642zM214.691 308.639c0-15.82 12.766-28.642 28.516-28.642a28.443 28.443 0 0 1 20.16 8.388 28.71 28.71 0 0 1 8.353 20.254c0 15.82-12.766 28.641-28.515 28.641-15.748 0-28.514-12.824-28.514-28.641zM279.859 308.117c0-15.819 12.766-28.641 28.515-28.641a28.443 28.443 0 0 1 20.161 8.387 28.71 28.71 0 0 1 8.353 20.254c0 15.82-12.766 28.642-28.515 28.642-15.748 0-28.514-12.824-28.514-28.642zM280.902 240.343c0-15.82 12.766-28.641 28.515-28.641a28.443 28.443 0 0 1 20.16 8.387 28.71 28.71 0 0 1 8.354 20.254c0 15.82-12.766 28.641-28.516 28.641-15.747 0-28.513-12.824-28.513-28.641z"
     stroke="#000"
     stroke-width="3.721"
     id="path24" />
  <path
     fill="#fff"
     fill-opacity=".409"
     fill-rule="evenodd"
     stroke="#000"
     d="M119.387 104.012h91.235v88.628h-91.235z"
     id="path26" />
  <path
     fill="#fff"
     fill-opacity=".409"
     fill-rule="evenodd"
     stroke="#000"
     d="M145.976 79.509h93.841v85.5h-93.841z"
     id="path28" />
  <path
     d="m145.976 165.01-26.589 27.63M239.817 165.01l-29.195 27.63M239.817 79.51l-29.195 24.502M145.976 79.51l-26.589 24.502"
     stroke="#000"
     id="path30" />
  <path
     fill="#ffffff"
     fill-opacity="0.409"
     fill-rule="evenodd"
     stroke="#000000"
     d="m 266.87345,114.15452 h 46.93432 v 46.00218 h -46.93432 z"
     id="path26-1"
     style="stroke-width:0.516735" />
  <path
     fill="#ffffff"
     fill-opacity="0.409"
     fill-rule="evenodd"
     stroke="#000000"
     d="m 280.55173,101.43629 h 48.27492 v 44.3786 h -48.27492 z"
     id="path28-7"
     style="stroke-width:0.516735" />
  <path
     d="m 280.55173,145.8154 -13.67828,14.3413 m 61.9532,-14.3413 -15.01888,14.3413 m 15.01888,-58.71989 -15.01888,12.71771 m -33.25604,-12.71771 -13.67828,12.71771"
     stroke="#000000"
     id="path30-7"
     style="stroke-width:0.516735" />
</svg>
